<?xml version="1.0" standalone="no"?>
<!DOCTYPE svg PUBLIC "-//W3C//DTD SVG 20010904//EN"
 "http://www.w3.org/TR/2001/REC-SVG-20010904/DTD/svg10.dtd">
<svg version="1.0" xmlns="http://www.w3.org/2000/svg"
 width="1280.000000pt" height="1189.000000pt" viewBox="0 0 1280.000000 1189.000000"
 preserveAspectRatio="xMidYMid meet">
<g transform="translate(0.000000,1189.000000) scale(0.100000,-0.100000)"
fill="#f396b5" stroke="none">
<path d="M2900 11750 c-793 -52 -1518 -436 -2026 -1071 -560 -702 -797 -1672
-664 -2719 170 -1336 895 -2764 2139 -4215 264 -307 450 -506 825 -881 659
-658 1255 -1180 2076 -1815 293 -228 871 -651 1089 -798 l63 -43 92 63 c335
231 932 674 1286 954 1339 1059 2411 2122 3206 3180 1289 1716 1837 3387 1584
4825 -175 990 -760 1809 -1590 2225 -357 179 -704 272 -1097 294 -509 29
-1010 -80 -1488 -323 -814 -413 -1494 -1218 -1922 -2276 -30 -74 -58 -139 -62
-143 -13 -13 -27 12 -81 148 -128 320 -379 785 -576 1065 -202 289 -527 641
-769 834 -625 499 -1357 743 -2085 696z"/>
</g>
</svg>
